M48
;DRILL file {KiCad 4.0.7} date 09/28/18 11:04:21
;FORMAT={-:-/ absolute / inch / decimal}
FMAT,2
INCH,TZ
T1C0.016
T2C0.030
T3C0.039
%
G90
G05
M72
T1
X4.6457Y-4.311
X4.685Y-4.3701
X4.7244Y-5.1181
X4.8228Y-5.0591
X4.8622Y-3.9173
X4.8622Y-4.1535
X5.0787Y-3.8583
X5.0787Y-4.2126
X5.0787Y-5.2362
X5.0984Y-4.3898
X5.0984Y-4.4488
X5.1181Y-3.6614
X5.1181Y-4.1339
X5.4921Y-3.9173
X5.7283Y-5.1181
X5.8268Y-4.311
T2
X4.4748Y-3.4587
X4.4748Y-3.5587
X4.4748Y-3.6587
X4.4748Y-3.7587
X4.4748Y-3.8587
X4.4748Y-3.9587
X4.4748Y-4.0587
X4.4748Y-4.1587
X4.9748Y-3.4587
X4.9748Y-3.5587
X4.9748Y-3.6587
X4.9748Y-3.7587
X4.9748Y-3.8587
X4.9748Y-3.9587
X4.9748Y-4.0587
X4.9748Y-4.1587
X5.2228Y-3.4587
X5.2228Y-3.5587
X5.2228Y-3.6587
X5.2228Y-3.7587
X5.2228Y-3.8587
X5.2228Y-3.9587
X5.2228Y-4.0587
X5.2228Y-4.1587
X5.2228Y-4.3248
X5.2228Y-4.4248
X5.2228Y-4.5248
X5.2228Y-4.6248
X5.2228Y-4.7248
X5.2228Y-4.8248
X5.2228Y-4.9248
X5.2228Y-5.0248
X5.7228Y-3.4587
X5.7228Y-3.5587
X5.7228Y-3.6587
X5.7228Y-3.7587
X5.7228Y-3.8587
X5.7228Y-3.9587
X5.7228Y-4.0587
X5.7228Y-4.1587
X5.7228Y-4.3248
X5.7228Y-4.4248
X5.7228Y-4.5248
X5.7228Y-4.6248
X5.7228Y-4.7248
X5.7228Y-4.8248
X5.7228Y-4.9248
X5.7228Y-5.0248
T3
X4.4992Y-4.5673
X4.4992Y-4.6673
X4.4992Y-4.7673
X4.4992Y-4.8673
X4.4992Y-4.9673
X4.4992Y-5.0673
X4.5992Y-4.5673
X4.5992Y-4.6673
X4.5992Y-4.7673
X4.5992Y-4.8673
X4.5992Y-4.9673
X4.5992Y-5.0673
X6.0346Y-3.4846
X6.0346Y-3.5846
X6.0346Y-3.6846
X6.0346Y-3.7846
X6.0346Y-4.1343
X6.0346Y-4.2343
X6.0346Y-4.3343
X6.0346Y-4.4343
X6.0346Y-4.7642
X6.0346Y-4.8642
X6.0346Y-4.9642
X6.0346Y-5.0642
T0
M30
